<?xml version="1.0" standalone="no"?>
<svg xmlns="http://www.w3.org/2000/svg" viewBox="0 0 1440 320">
    <path fill="#0A4C86" fill-opacity="1" d="M0,0L48,42.7C96,85,192,171,288,181.3C384,192,480,128,576,112C672,96,768,128,864,165.3C960,203,1056,245,1152,256C1248,267,1344,245,1392,234.7L1440,224L1440,320L1392,320C1344,320,1248,320,1152,320C1056,320,960,320,864,320C768,320,672,320,576,320C480,320,384,320,288,320C192,320,96,320,48,320L0,320Z"></path>
    <!-- <path fill="#0A4C16" fill-opacity="1" d="M0,0L48,42.7C96,85,192,171,288,181.3C384,192,480,128,576,112C672,96,768,128,864,165.3C960,203,1056,245,1152,256C1248,267,1344,245,1392,234.7L1440,224L1440,320L1392,320C1344,320,1248,320,1152,320C1056,320,960,320,864,320C768,320,672,320,576,320C480,320,384,320,288,320C192,320,96,320,48,320L0,320Z"></path> -->
</svg>